<svg xmlns="http://www.w3.org/2000/svg" viewBox="0 0 720 405" role="img" aria-labelledby="title desc">
  <title id="title">배달 대신 포장으로 잘못 선택한 주문 화면</title>
  <desc id="desc">휴대전화 주문 화면에서 포장 선택이 강조되고, 옆에는 치킨 포장 봉투와 해결을 뜻하는 전화 아이콘이 놓여 있다.</desc>
  <defs>
    <linearGradient id="background" x1="0" y1="0" x2="1" y2="1">
      <stop offset="0" stop-color="#fff7df"/>
      <stop offset="1" stop-color="#ffd9cf"/>
    </linearGradient>
    <filter id="shadow" x="-20%" y="-20%" width="140%" height="140%">
      <feDropShadow dx="0" dy="8" stdDeviation="8" flood-color="#8e5d51" flood-opacity=".2"/>
    </filter>
  </defs>
  <rect width="720" height="405" rx="28" fill="url(#background)"/>
  <circle cx="92" cy="76" r="34" fill="#fff" opacity=".62"/>
  <circle cx="644" cy="326" r="54" fill="#fff" opacity=".45"/>

  <g filter="url(#shadow)">
    <rect x="210" y="35" width="255" height="335" rx="30" fill="#2e3038"/>
    <rect x="224" y="57" width="227" height="286" rx="18" fill="#fffdf8"/>
    <rect x="303" y="44" width="68" height="7" rx="4" fill="#777b86"/>
    <rect x="278" y="82" width="118" height="8" rx="4" fill="#34353b"/>
    <rect x="302" y="98" width="70" height="5" rx="3" fill="#b9bbc1"/>
    <rect x="247" y="120" width="181" height="64" rx="14" fill="#f1f2f4"/>
    <circle cx="275" cy="152" r="12" fill="none" stroke="#a7aab2" stroke-width="4"/>
    <g transform="translate(301 137)" fill="none" stroke="#6a6c74" stroke-width="5" stroke-linecap="round" stroke-linejoin="round">
      <path d="M0 4h45v25H0zM45 13h15l10 10v6H45z"/>
      <circle cx="13" cy="32" r="6" fill="#f1f2f4"/>
      <circle cx="55" cy="32" r="6" fill="#f1f2f4"/>
    </g>
    <rect x="247" y="198" width="181" height="72" rx="14" fill="#fff0ec" stroke="#ec694b" stroke-width="4"/>
    <circle cx="275" cy="234" r="13" fill="#ec694b"/>
    <path d="m269 234 5 5 9-11" fill="none" stroke="#fff" stroke-width="4" stroke-linecap="round" stroke-linejoin="round"/>
    <g transform="translate(312 216)" fill="none" stroke="#c4442c" stroke-width="5" stroke-linecap="round" stroke-linejoin="round">
      <path d="M0 10h54l-5 35H5zM14 10C14-4 40-4 40 10"/>
      <path d="m19 28 8 8 14-17"/>
    </g>
    <rect x="270" y="292" width="135" height="30" rx="15" fill="#ffd45d"/>
    <path d="m317 307 11 9 25-24" fill="none" stroke="#574619" stroke-width="6" stroke-linecap="round" stroke-linejoin="round"/>
  </g>

  <g transform="translate(82 178)" filter="url(#shadow)">
    <path d="M18 48h107l-9 125H27Z" fill="#f5b83b" stroke="#a86619" stroke-width="5" stroke-linejoin="round"/>
    <path d="M43 49c0-28 56-28 56 0" fill="none" stroke="#a86619" stroke-width="7" stroke-linecap="round"/>
    <path d="M49 103c15-18 36-17 49 0-11 24-36 24-49 0Z" fill="#fff5cf"/>
    <path d="M64 93c-10-17 12-29 22-13 12-8 25 8 13 20" fill="none" stroke="#d55b35" stroke-width="6" stroke-linecap="round"/>
  </g>

  <g transform="translate(505 102)" filter="url(#shadow)">
    <circle cx="70" cy="70" r="66" fill="#fff"/>
    <path d="M48 38c7-7 14-2 18 5l7 13c3 6 1 11-5 15l-7 4c8 16 21 29 37 37l4-7c4-6 9-8 15-5l13 7c7 4 12 11 5 18-8 9-22 13-34 8-31-13-55-37-68-68-5-12-1-26 8-34Z" fill="#5aaa77"/>
    <path d="m112 31 11 11 21-24" fill="none" stroke="#5aaa77" stroke-width="8" stroke-linecap="round" stroke-linejoin="round"/>
  </g>

  <path d="M476 286c31 5 56 1 79-14" fill="none" stroke="#d7674c" stroke-width="7" stroke-linecap="round" stroke-dasharray="3 16"/>
  <path d="m548 260 17 5-10 15" fill="none" stroke="#d7674c" stroke-width="7" stroke-linecap="round" stroke-linejoin="round"/>
</svg>
