<svg xmlns="http://www.w3.org/2000/svg" viewBox="0 0 720 405" role="img" aria-labelledby="title desc">
  <title id="title">아껴 둔 드라마 결말을 친구가 말해버린 순간</title>
  <desc id="desc">드라마가 재생 중인 화면 앞에서 한 사람은 귀를 막으며 스포를 멈춰 달라고 하고, 다른 사람은 무심코 말한 뒤 미안해한다.</desc>
  <defs>
    <linearGradient id="bg" x1="0" y1="0" x2="1" y2="1">
      <stop offset="0" stop-color="#eee7ff"/>
      <stop offset="1" stop-color="#ffe9d7"/>
    </linearGradient>
    <filter id="shadow" x="-20%" y="-20%" width="140%" height="150%">
      <feDropShadow dx="0" dy="7" stdDeviation="7" flood-color="#493f61" flood-opacity=".18"/>
    </filter>
  </defs>
  <rect width="720" height="405" rx="28" fill="url(#bg)"/>
  <rect y="310" width="720" height="95" fill="#baa8d1"/>
  <g filter="url(#shadow)">
    <rect x="215" y="38" width="290" height="190" rx="18" fill="#302d42"/>
    <rect x="232" y="55" width="256" height="156" rx="9" fill="#fff5de"/>
    <circle cx="360" cy="133" r="49" fill="#eb907b"/>
    <path d="m345 105 47 28-47 28Z" fill="#fff"/>
    <path d="M317 228h86l16 42H301Z" fill="#4e4a63"/>
  </g>
  <g transform="translate(62 207)">
    <circle cx="94" cy="45" r="37" fill="#efb68c"/>
    <path d="M58 39c3-50 69-54 75-5-20-15-51-14-75 5Z" fill="#473831"/>
    <path d="M32 198c2-80 29-116 62-116s60 36 62 116Z" fill="#ef6f6a"/>
    <path d="M62 69 39 96M126 69l23 27" fill="none" stroke="#efb68c" stroke-width="18" stroke-linecap="round"/>
    <path d="M46 90 59 76M142 90l-13-14" fill="none" stroke="#473831" stroke-width="10" stroke-linecap="round"/>
    <circle cx="81" cy="46" r="4" fill="#473831"/>
    <circle cx="107" cy="46" r="4" fill="#473831"/>
    <path d="M82 63c8-7 16-7 24 0" fill="none" stroke="#473831" stroke-width="5" stroke-linecap="round"/>
  </g>
  <g transform="translate(519 210)">
    <circle cx="60" cy="42" r="37" fill="#e9ae82"/>
    <path d="M24 35c5-47 70-49 73-1-20-13-50-13-73 1Z" fill="#3d322f"/>
    <path d="M0 195c2-78 28-114 60-114s58 36 60 114Z" fill="#668bc0"/>
    <circle cx="47" cy="42" r="4" fill="#3d322f"/>
    <circle cx="73" cy="42" r="4" fill="#3d322f"/>
    <path d="M49 64c7-6 15-6 22 0" fill="none" stroke="#3d322f" stroke-width="5" stroke-linecap="round"/>
  </g>
  <path d="M516 113c-42-5-68 12-75 44 19-8 35-8 49-3 19 6 37-5 43-23 3-9-4-17-17-18Z" fill="#fff" stroke="#62587b" stroke-width="5"/>
  <path d="m481 137-14 25 27-13" fill="#fff" stroke="#62587b" stroke-width="5" stroke-linejoin="round"/>
  <path d="M497 125v18M497 151v2" stroke="#e15f5f" stroke-width="8" stroke-linecap="round"/>
</svg>
